<svg width="512" height="109" viewBox="0 0 512 109" fill="none" xmlns="http://www.w3.org/2000/svg">
<path fill-rule="evenodd" clip-rule="evenodd" d="M104.104 0.902893H102.077L21.6305 0.902832C18.1152 0.902832 15.0393 1.41271 12.4028 2.43248C9.76631 3.5307 7.56923 4.98193 5.81157 6.78614C3.98067 8.6688 2.62581 10.7868 1.74698 13.1401C0.86814 15.5719 0.428711 18.0821 0.428711 20.6708V40.3792C0.428711 42.2143 1.91637 43.702 3.7515 43.702H75.3273L43.228 22.3024H102.077H104.101C105.936 22.3024 107.427 20.8147 107.427 18.9796V4.22567C107.427 2.39055 105.939 0.902893 104.104 0.902893ZM3.75204 107.9H5.77911L86.2253 107.901C89.7406 107.901 92.8165 107.391 95.453 106.371C98.0895 105.273 100.287 103.821 102.044 102.017C103.875 100.135 105.23 98.0166 106.109 95.6633C106.988 93.2315 107.427 90.7213 107.427 88.1326V68.4242C107.427 66.5891 105.939 65.1014 104.104 65.1014H32.5285L64.6279 86.501H5.77911H3.75461C1.91949 86.501 0.429229 87.9886 0.429229 89.8238V104.578C0.429229 106.413 1.91692 107.9 3.75204 107.9Z" fill="#6966FB"/>
<path d="M153.615 78.3804C154.245 97.3613 169.724 108.918 194.028 108.918C219.102 108.918 235.001 96.5208 235.001 76.9096C235.001 61.5008 226.176 52.8158 205.935 48.4734L193.678 45.8819C182.051 43.2204 177.148 39.7184 177.148 33.4848C177.148 25.9905 184.152 21.0177 194.588 21.0177C205.164 21.0177 212.658 26.2006 213.359 34.7455H233.18C232.83 16.4651 218.052 4.34814 194.518 4.34814C171.965 4.34814 155.856 16.6752 155.856 35.3058C155.856 50.0843 165.031 59.5397 183.662 63.532L196.829 66.4036C209.016 69.1352 213.849 72.7772 213.849 79.361C213.849 86.7853 206.145 92.1783 194.868 92.1783C183.662 92.1783 174.977 86.7152 173.996 78.3804H153.615Z" fill="#040404"/>
<path d="M269.537 93.5791C262.603 93.5791 257.98 90.0771 257.98 84.4739C257.98 79.1509 262.322 75.7189 269.957 75.1586L285.786 74.178V79.6412C285.786 87.7658 278.432 93.5791 269.537 93.5791ZM262.813 108.358C272.198 108.358 281.513 103.665 285.716 95.6803H286.136V107.167H305.887V55.5474C305.887 40.4188 293.35 30.4731 274.089 30.4731C254.198 30.4731 241.801 40.4888 241.03 55.0571H259.731C260.712 49.524 265.544 45.7418 273.179 45.7418C280.883 45.7418 285.786 49.8041 285.786 56.8081V61.781L266.875 62.9016C248.174 64.0222 237.668 71.9368 237.668 85.5946C237.668 99.1123 248.525 108.358 262.813 108.358Z" fill="#040404"/>
<path d="M358.003 108.358C376.914 108.358 388.47 93.7893 388.47 69.6254C388.47 45.3916 376.844 30.8933 357.933 30.8933C347.217 30.8933 338.882 36.2164 334.749 45.1114H334.329V6.09915H313.878V107.167H334.049V94.2795H334.469C338.602 103.035 347.006 108.358 358.003 108.358ZM350.929 47.2827C361.084 47.2827 367.528 55.9676 367.528 69.6254C367.528 83.3533 361.155 91.8982 350.929 91.8982C340.983 91.8982 334.259 83.2132 334.259 69.6254C334.259 56.1778 341.053 47.2827 350.929 47.2827Z" fill="#040404"/>
<path d="M427.068 45.6017C436.173 45.6017 442.407 52.1855 442.827 61.781H410.959C411.659 52.3956 418.103 45.6017 427.068 45.6017ZM443.107 84.1938C441.216 89.9371 435.473 93.6492 427.978 93.6492C417.542 93.6492 410.748 86.295 410.748 75.5788V74.3181H462.508V68.0846C462.508 45.2515 448.71 30.4731 426.858 30.4731C404.655 30.4731 390.647 46.022 390.647 69.9756C390.647 93.9994 404.515 108.778 427.628 108.778C446.189 108.778 459.636 98.9022 461.878 84.1938H443.107Z" fill="#040404"/>
<path d="M467.346 107.167H487.798V65.2129C487.798 54.6369 493.681 48.4734 503.767 48.4734C506.709 48.4734 509.51 48.9636 511.191 49.664V31.6638C509.791 31.2435 507.76 30.8933 505.378 30.8933C496.553 30.8933 490.179 36.0763 487.518 45.6017H487.098V32.084H467.346V107.167Z" fill="#040404"/>
</svg>
