<svg width="100" height="100" viewBox="0 0 100 100" fill="none" xmlns="http://www.w3.org/2000/svg">
<mask id="path-1-inside-1_962_7" fill="white">
<path d="M100 50C100 77.6142 77.6142 100 50 100C22.3858 100 0 77.6142 0 50C0 22.3858 22.3858 0 50 0C77.6142 0 100 22.3858 100 50Z"/>
</mask>
<path d="M100 50C100 77.6142 77.6142 100 50 100C22.3858 100 0 77.6142 0 50C0 22.3858 22.3858 0 50 0C77.6142 0 100 22.3858 100 50Z" fill="black"/>
<path d="M93.04 50C93.04 73.7703 73.7703 93.04 50 93.04V106.96C81.4581 106.96 106.96 81.4581 106.96 50H93.04ZM50 93.04C26.2297 93.04 6.96 73.7703 6.96 50H-6.96C-6.96 81.4581 18.5419 106.96 50 106.96V93.04ZM6.96 50C6.96 26.2297 26.2297 6.96 50 6.96V-6.96C18.5419 -6.96 -6.96 18.5419 -6.96 50H6.96ZM50 6.96C73.7703 6.96 93.04 26.2297 93.04 50H106.96C106.96 18.5419 81.4581 -6.96 50 -6.96V6.96Z" fill="#6764FB" mask="url(#path-1-inside-1_962_7)"/>
<path fill-rule="evenodd" clip-rule="evenodd" d="M69.9999 31.999C69.9999 30.8945 69.1045 29.999 67.9999 29.999L37.926 29.999C36.6118 29.999 35.4619 30.1896 34.4763 30.5709C33.4907 30.9814 32.6693 31.5239 32.0123 32.1984C31.3278 32.9022 30.8213 33.694 30.4927 34.5738C30.1642 35.4829 29.9999 36.4213 29.9999 37.3891V41.1535C29.9999 43.8296 32.1694 45.999 34.8455 45.999H57.9999L46 37.999H67.9999C69.1045 37.999 69.9999 37.1036 69.9999 35.999V31.999ZM29.999 68.0005C29.999 69.1051 30.8945 70.0005 31.999 70.0005L62.073 70.0005C63.3871 70.0005 64.537 69.8099 65.5226 69.4287C66.5083 69.0181 67.3296 68.4756 67.9867 67.8011C68.6712 67.0973 69.1777 66.3055 69.5062 65.4257C69.8347 64.5166 69.999 63.5782 69.999 62.6105V58.8461C69.999 56.1699 67.8296 54.0005 65.1535 54.0005H41.999L53.999 62.0005H31.999C30.8945 62.0005 29.999 62.8959 29.999 64.0005V68.0005Z" fill="#6764FB"/>
</svg>
